<svg class="img-fluid" id="outputsvg" xmlns="http://www.w3.org/2000/svg" style="transform: matrix(1, 0, 0, 1, 0, 0); transform-origin: 50% 50%; cursor: move; transition: transform 200ms ease-in-out;" width="759" height="329" viewBox="0 0 7590 3290"><g id="l6Le1uwr4kDfYH7JYSxvA6q" fill="rgb(255,255,255)" style="transform: none;"><g style="transform: none;"><path id="pG870M1rL" d="M4010 3196 c-61 -31 -110 -103 -110 -161 0 -55 15 -95 63 -175 44 -72 70 -137 61 -152 -16 -26 -115 18 -402 179 -112 62 -256 140 -320 172 -118 60 -321 134 -399 146 -39 6 -43 5 -48 -17 -8 -37 -8 5 -7 -1625 l2 -1563 60 0 60 0 0 1545 c0 1472 1 1545 18 1545 42 0 265 -98 417 -183 543 -305 612 -332 676 -268 24 25 29 37 29 80 0 51 -16 89 -95 231 -36 64 -33 104 9 146 29 29 41 34 83 34 61 0 127 -20 201 -61 262 -144 370 -192 490 -215 137 -27 242 -6 387 77 50 29 105 60 124 71 18 10 68 31 110 45 275 93 880 -22 1362 -260 l125 -63 19 38 c10 21 16 40 14 42 -6 6 -177 91 -224 111 -249 107 -482 178 -765 231 -136 25 -431 26 -515 0 -82 -24 -168 -63 -245 -110 -36 -21 -94 -53 -130 -69 -58 -27 -75 -30 -160 -30 -139 1 -255 45 -540 203 -151 84 -263 102 -350 56z"></path><path id="pi9QxsfuF" d="M1101 2551 c-7 -13 -7 -23 2 -35 11 -15 41 -16 286 -14 243 3 275 5 284 20 8 12 7 21 -2 32 -12 14 -50 16 -287 16 -256 0 -274 -1 -283 -19z"></path><path id="pameYXRDi" d="M1202 2448 c-7 -7 -12 -19 -12 -28 0 -36 20 -40 196 -40 144 0 175 3 188 16 9 8 16 19 16 24 0 5 -7 16 -16 24 -13 13 -44 16 -188 16 -120 0 -176 -4 -184 -12z"></path><path id="p1Fken80lh" d="M1197 2333 c-4 -3 -7 -311 -7 -683 0 -469 -3 -687 -11 -709 -30 -84 -119 -59 -119 34 0 43 24 85 49 85 16 0 23 38 11 60 -14 26 -40 26 -74 -1 -40 -31 -56 -71 -56 -139 0 -73 20 -122 63 -152 69 -49 160 -12 191 79 14 41 16 129 16 724 0 373 -3 684 -6 693 -6 16 -45 22 -57 9z"></path><path id="p10FmnwLCj" d="M1357 2334 c-4 -4 -7 -317 -7 -695 0 -628 1 -689 16 -697 9 -5 25 -7 35 -5 18 5 19 29 17 702 l-3 696 -25 3 c-14 2 -29 0 -33 -4z"></path><path id="p82HaW40x" d="M1526 2331 c-3 -4 -6 -324 -6 -709 -1 -762 -4 -726 55 -784 35 -35 74 -43 118 -24 86 36 119 172 63 257 -44 66 -106 79 -106 23 0 -19 10 -36 32 -54 27 -23 33 -34 33 -70 0 -69 -61 -104 -105 -60 -20 20 -20 33 -20 709 0 379 -3 696 -6 705 -6 17 -49 22 -58 7z"></path><path id="pua641MmK" d="M3145 2321 c3 -6 13 -11 21 -11 12 0 14 -37 14 -234 l0 -235 -22 -4 c-13 -2 3 -5 35 -6 l57 -1 -2 248 -3 247 -53 3 c-36 2 -52 0 -47 -7z"></path><path id="pMrdn8KaW" d="M3275 2320 c3 -5 21 -10 40 -10 40 0 85 -41 85 -77 0 -12 5 -25 11 -28 7 -5 9 14 7 57 l-3 63 -73 3 c-50 2 -72 -1 -67 -8z"></path><path id="pNsOr7tH7" d="M3481 2273 l1 -58 13 31 c8 18 29 44 47 58 32 26 32 26 5 14 -22 -9 -33 -9 -48 0 -18 12 -19 9 -18 -45z"></path><path id="p14RGcO7hu" d="M3619 2317 c34 -11 58 -45 48 -70 -3 -9 -38 -36 -77 -61 -83 -54 -107 -93 -89 -145 6 -17 21 -36 33 -42 17 -10 19 -9 9 2 -26 27 -13 48 60 99 96 66 117 112 82 179 -13 26 -61 53 -89 50 -6 -1 4 -6 23 -12z"></path><path id="p15rODaMkg" d="M3812 2314 c-21 -15 -22 -21 -22 -170 l0 -154 -27 -1 c-26 -1 -26 -1 5 -9 33 -8 61 -36 74 -75 4 -13 6 -3 7 27 1 47 1 47 39 51 l37 4 -37 1 -38 2 0 170 c0 94 -3 170 -8 170 -4 0 -18 -7 -30 -16z"></path><path id="p1GBcj2DFF" d="M3883 2314 c15 -8 27 -21 27 -29 0 -7 4 -16 9 -19 5 -4 7 3 4 14 -6 21 -40 50 -58 50 -5 -1 2 -8 18 -16z"></path><path id="pFGvwS4VY" d="M4019 2311 c-23 -18 -24 -25 -27 -169 -3 -131 -6 -151 -20 -155 -9 -3 7 -5 36 -6 l52 -1 0 165 0 165 25 0 c16 0 29 -9 39 -27 10 -19 15 -22 16 -11 0 22 -47 58 -75 58 -13 0 -33 -9 -46 -19z"></path><path id="pooRWO6Eh" d="M4157 2323 c-4 -3 -7 -80 -7 -169 0 -146 -2 -163 -17 -167 -10 -3 6 -5 35 -6 l52 -1 0 170 c0 146 2 169 15 164 8 -4 15 -1 15 5 0 12 -82 16 -93 4z"></path><path id="px6CmlDIc" d="M4336 2309 c-26 -20 -26 -22 -26 -150 0 -125 1 -131 25 -154 14 -15 35 -25 52 -25 24 1 25 2 11 11 -16 9 -18 28 -18 164 0 85 4 156 9 159 16 10 41 -5 56 -33 10 -18 14 -21 15 -9 0 22 -46 58 -75 58 -12 0 -34 -9 -49 -21z"></path><path id="p14hAF4T4r" d="M4477 2323 c-4 -3 -7 -118 -7 -254 l0 -248 -22 -4 c-13 -2 3 -5 35 -6 l57 -1 0 255 c0 222 2 254 15 249 8 -4 15 -1 15 5 0 12 -82 16 -93 4z"></path><path id="p1B4gnd489" d="M4610 2319 c0 -6 7 -9 15 -5 13 5 15 -17 15 -159 0 -147 -2 -164 -17 -168 -10 -3 6 -5 35 -6 l52 -1 0 170 c0 146 2 169 15 164 8 -4 15 -1 15 5 0 7 -24 11 -65 11 -41 0 -65 -4 -65 -11z"></path><path id="pq138txA0" d="M5325 2325 c6 -2 22 -6 38 -9 l27 -6 0 -234 0 -235 -22 -4 c-13 -2 15 -4 62 -4 47 0 75 2 63 4 -23 4 -23 5 -23 209 0 161 -3 211 -15 233 -16 31 -60 51 -109 50 -17 0 -26 -2 -21 -4z"></path><path id="pGGWzS0am" d="M5599 2311 c-23 -18 -24 -25 -27 -169 -3 -131 -6 -151 -20 -155 -9 -3 7 -5 36 -6 l52 -1 0 165 0 165 25 0 c16 0 29 -9 39 -27 10 -19 15 -22 16 -11 0 22 -47 58 -75 58 -13 0 -33 -9 -46 -19z"></path><path id="pS8d0u4HN" d="M5737 2323 c-4 -3 -7 -80 -7 -169 0 -146 -2 -163 -17 -167 -10 -3 6 -5 35 -6 l52 -1 0 170 c0 146 2 169 15 164 8 -4 15 -1 15 5 0 12 -82 16 -93 4z"></path><path id="ppLedWz5G" d="M5870 2319 c0 -6 7 -9 15 -5 13 5 15 -17 15 -159 0 -147 -2 -164 -17 -168 -10 -3 6 -5 35 -6 l52 -1 0 165 c0 157 1 165 19 165 11 0 23 5 26 10 4 6 -22 10 -69 10 -49 0 -76 -4 -76 -11z"></path><path id="p1AXWLdXTg" d="M6110 2319 c0 -6 7 -9 15 -5 13 5 15 -17 15 -159 0 -162 0 -164 -22 -168 -13 -3 2 -4 32 -3 l55 1 3 159 c2 137 5 161 20 172 15 11 7 13 -50 14 -43 0 -68 -4 -68 -11z"></path><path id="p1GfSniosL" d="M6327 2318 c-27 -21 -37 -65 -37 -162 0 -135 19 -176 82 -176 29 0 68 34 67 58 0 14 -2 14 -6 2 -9 -24 -35 -50 -50 -50 -10 0 -13 33 -13 165 0 125 3 165 13 165 20 0 35 -14 46 -40 9 -24 10 -24 10 -3 2 42 -73 69 -112 41z"></path><path id="p4bjlw78Q" d="M6460 2076 l0 -255 -22 -4 c-13 -2 1 -5 30 -6 l52 -1 0 250 c0 211 2 250 14 250 8 0 18 5 21 10 4 6 -13 10 -44 10 l-51 0 0 -254z"></path><path id="p18xcLpk9U" d="M6595 2320 c3 -5 12 -7 20 -3 13 4 15 -19 15 -160 0 -164 0 -166 -22 -170 -13 -2 1 -5 30 -6 l52 -1 0 170 c0 141 2 168 14 164 8 -3 17 -1 21 5 4 8 -17 11 -65 11 -43 0 -69 -4 -65 -10z"></path><path id="pq3IsAGki" d="M6840 2317 c-41 -20 -60 -72 -60 -162 0 -90 19 -142 60 -162 34 -17 82 -16 106 3 18 15 18 15 -3 5 -34 -17 -71 -13 -83 8 -16 31 -13 261 4 294 16 30 13 32 -24 14z"></path><path id="p181mCrQfp" d="M6930 2312 c20 -10 42 -32 52 -52 19 -38 25 -27 7 13 -11 25 -57 57 -81 57 -7 0 3 -8 22 -18z"></path><path id="p126zYkqT0" d="M4838 2306 c-29 -22 -48 -81 -48 -150 0 -81 23 -142 61 -161 32 -17 64 -20 37 -4 -16 9 -18 28 -18 164 0 113 3 155 13 158 6 3 3 6 -8 6 -11 0 -28 -6 -37 -13z"></path><path id="p17nRJjCSo" d="M4930 2310 c22 -14 28 -258 7 -300 -18 -34 -16 -35 22 -15 42 21 61 71 61 158 0 42 -4 87 -9 100 -13 34 -50 67 -75 67 -17 0 -18 -2 -6 -10z"></path><path id="pDlHOu4Eh" d="M7088 2295 c-30 -29 -38 -63 -38 -152 0 -77 21 -128 61 -148 32 -17 64 -20 37 -4 -16 9 -18 28 -18 164 0 113 3 155 13 158 6 3 2 6 -9 6 -12 1 -33 -10 -46 -24z"></path><path id="pYa1KZlij" d="M7190 2310 c12 -8 15 -36 15 -155 0 -134 -2 -148 -19 -161 -31 -22 3 -18 41 6 21 13 35 31 42 57 12 42 14 134 5 182 -8 38 -49 81 -78 81 -17 0 -18 -2 -6 -10z"></path><path id="pq2kPzhhC" d="M5255 2287 c-26 -20 -13 -67 18 -67 43 0 60 35 31 64 -19 19 -25 20 -49 3z"></path><path id="p1GGNHBDWq" d="M388 2114 c-148 -35 -245 -129 -273 -261 -6 -31 -5 -33 19 -33 14 0 26 -4 26 -9 0 -9 59 -161 231 -595 l59 -150 0 -161 c0 -143 -2 -163 -20 -185 -53 -68 14 -163 103 -146 40 7 65 32 76 72 16 63 147 91 269 59 37 -10 108 -37 157 -61 l91 -44 256 0 256 0 74 39 c145 78 287 101 374 62 31 -14 42 -26 47 -48 3 -16 15 -40 25 -54 17 -20 29 -24 72 -24 44 0 55 4 76 28 30 35 31 85 4 120 -18 22 -20 40 -20 164 l0 138 59 150 c32 83 70 179 85 215 14 36 57 144 95 240 56 142 73 176 90 178 29 5 27 43 -5 112 -46 99 -148 169 -281 192 -204 34 -405 -87 -438 -264 -6 -33 -5 -38 12 -38 24 0 13 24 188 -416 l135 -341 0 -144 0 -144 -36 -11 c-30 -10 -42 -8 -76 8 -96 46 -258 28 -410 -47 l-70 -35 -264 0 c-246 0 -265 1 -297 20 -19 11 -72 35 -118 52 -72 27 -98 32 -179 32 -80 1 -104 -3 -148 -23 -40 -18 -56 -21 -65 -12 -6 6 -21 11 -34 11 -23 0 -23 1 -23 129 l0 129 69 174 c38 95 99 250 136 343 106 271 109 278 127 283 25 6 23 47 -6 107 -45 95 -128 158 -253 190 -69 18 -119 18 -195 -1z m372 -302 c0 -4 -33 -91 -73 -192 -40 -102 -100 -254 -133 -337 -32 -84 -61 -153 -65 -153 -3 0 -15 26 -26 58 -12 31 -71 183 -132 337 -61 154 -111 283 -111 288 0 4 122 7 270 7 149 0 270 -3 270 -8z m1777 -14 c-53 -126 -99 -240 -167 -413 -45 -115 -88 -221 -95 -235 l-13 -24 -17 39 c-9 22 -21 51 -25 65 -4 14 -47 122 -95 240 -48 118 -90 226 -95 240 -4 14 -15 42 -24 63 l-16 37 276 0 c217 0 275 -3 271 -12z m-1999 -1100 c18 -18 14 -56 -7 -68 -26 -14 -50 -3 -57 26 -11 42 34 72 64 42z m1720 0 c18 -18 14 -56 -7 -68 -26 -14 -50 -3 -57 26 -11 42 34 72 64 42z"></path><path id="p16aIiiqLy" d="M3360 2111 c-6 -12 -28 -24 -53 -29 l-42 -10 37 -1 c27 -1 42 -8 57 -27 l21 -27 0 57 c0 60 -3 67 -20 37z"></path><path id="p1AlgtlLFk" d="M6936 2094 c-29 -29 -12 -64 31 -64 27 0 42 42 23 65 -16 19 -35 19 -54 -1z"></path><path id="p1DTX3Ul7H" d="M3662 2041 c-7 -16 -27 -36 -45 -45 -37 -18 -21 -22 18 -4 22 10 28 9 36 -3 6 -9 9 1 9 34 0 26 -1 47 -3 47 -1 0 -8 -13 -15 -29z"></path><path id="pNYcdhJ0j" d="M6020 2045 c-26 -32 13 -81 48 -59 34 22 22 74 -18 74 -10 0 -23 -7 -30 -15z"></path><path id="pClMva8Qe" d="M4437 2017 l-17 -32 20 24 c17 20 26 41 18 41 -2 0 -11 -15 -21 -33z"></path><path id="pWtHJEXuS" d="M3400 1931 c0 -42 -36 -78 -90 -89 -44 -10 -42 -10 33 -11 l77 -1 0 65 c0 37 -4 65 -10 65 -5 0 -10 -13 -10 -29z"></path><path id="pK50r5TCi" d="M6110 1932 c1 -4 18 -26 39 -49 31 -34 46 -43 72 -43 21 0 29 4 24 9 -19 19 -135 90 -135 83z"></path><path id="pUmfSO3WA" d="M4653 1883 c-7 -2 -13 -17 -13 -33 0 -37 33 -50 61 -24 23 21 24 28 3 48 -16 16 -29 19 -51 9z"></path><path id="p6zTQA2ro" d="M6630 1875 c-26 -32 13 -81 48 -59 34 22 22 74 -18 74 -10 0 -23 -7 -30 -15z"></path><path id="pLFCvrrE2" d="M4300 1584 c0 -8 10 -14 21 -14 45 0 101 -25 129 -57 25 -28 30 -42 30 -87 0 -69 -15 -89 -219 -291 -90 -88 -173 -178 -186 -200 -92 -155 -15 -345 151 -372 46 -8 42 8 -9 32 -33 16 -45 29 -56 60 -28 82 -18 98 180 299 211 213 242 261 242 374 0 126 -73 220 -193 250 -84 20 -90 21 -90 6z"></path><path id="p10v094aD5" d="M4020 1445 c0 -144 11 -188 25 -98 14 97 88 190 170 214 25 7 45 17 45 21 0 16 -33 7 -105 -28 -83 -39 -115 -36 -115 11 0 14 -4 25 -10 25 -6 0 -10 -55 -10 -145z"></path><path id="pC6EPwQcz" d="M4759 1577 c-68 -52 -32 -167 53 -167 40 0 65 15 83 50 21 41 19 64 -11 99 -21 26 -33 31 -67 31 -23 0 -49 -6 -58 -13z"></path><path id="pNF35OWrH" d="M5440 1580 c0 -5 18 -10 40 -10 l40 0 0 -495 0 -495 -40 0 c-22 0 -40 -4 -40 -10 0 -6 45 -10 115 -10 l115 0 0 515 0 515 -115 0 c-70 0 -115 -4 -115 -10z"></path><path id="pGJZmjpwJ" d="M5710 1581 c0 -5 22 -11 50 -13 82 -8 80 -1 80 -248 0 -249 0 -250 -83 -250 -63 0 -60 -16 4 -22 84 -8 84 -9 84 -233 0 -223 0 -222 -83 -232 -60 -7 -70 -23 -14 -23 65 0 139 28 176 66 59 61 82 187 50 281 -23 68 -47 98 -100 123 l-45 22 62 32 c217 109 175 444 -62 495 -60 13 -119 14 -119 2z"></path><path id="p33AcRDaU" d="M6219 1577 c-47 -36 -51 -97 -10 -138 50 -50 124 -35 151 31 15 36 0 82 -34 105 -25 18 -85 19 -107 2z"></path><path id="pWLSk08iG" d="M4506 768 c-15 -91 -88 -172 -168 -184 -21 -4 -38 -10 -38 -15 0 -19 54 -8 115 22 69 35 95 33 95 -6 0 -14 5 -25 10 -25 6 0 10 48 10 125 0 125 -11 163 -24 83z"></path><path id="plTQehzwv" d="M1208 790 c-10 -6 -18 -19 -18 -28 0 -38 19 -42 196 -42 144 0 175 3 188 16 18 18 19 23 6 44 -7 12 -41 15 -182 18 -108 1 -180 -2 -190 -8z"></path></g></g></svg>